<?xml version="1.0" encoding="UTF-8"?>
<svg id="_레이어_1" data-name="레이어 1" xmlns="http://www.w3.org/2000/svg" viewBox="0 0 312.6623 312.6599">
  <defs>
    <style>
      .cls-1, .cls-2 {
        fill: #333;
      }

      .cls-2 {
        stroke: #fff;
        stroke-linecap: round;
        stroke-linejoin: round;
        stroke-width: 4px;
      }
    </style>
  </defs>
  <g>
    <path class="cls-1" d="m306.6585,309.6598c-.4551,0-.9141-.1035-1.3408-.3164l-119.1523-59.5762L6.949,309.5055c-.311.1035-.6309.1543-.9482.1543-.7832,0-1.5498-.3066-2.1216-.8789-.8037-.8037-1.0845-1.9922-.7251-3.0693L62.8929,126.4938,3.3172,7.342c-.5776-1.1553-.3511-2.5498.562-3.4629.5757-.5762,1.3438-.8789,2.1221-.8789.4551,0,.9146.1035,1.3408.3169l119.1519,59.5757L305.7112,3.154c.3105-.1035.6309-.1538.9482-.1538.7832,0,1.5498.3066,2.1211.8789.8037.8032,1.084,1.9917.7246,3.0698l-59.7383,179.2168,59.5762,119.1523c.5771,1.1553.3506,2.5498-.5625,3.4629-.5762.5762-1.3438.8789-2.1221.8789Z"/>
    <path class="cls-1" d="m306.6598,6.0002h.005m-.005,0l-60.1319,180.3957,60.1319,120.2639-120.2638-60.1319L6.0002,306.6598l60.1319-180.3958L6.0002,6.0002l120.2638,60.1319L306.6598,6.0002m-.0008-6.0002c-.1266,0-.2534.004-.3802.0121-.5752.0361-1.1287.1532-1.6487.3401L126.7244,59.654,8.6834.6336C7.8309.2073,6.9127,0,6.002,0c-1.5568,0-3.0922.6054-4.2444,1.7575C-.0686,3.5837-.5214,6.3735.6336,8.6834l59.0205,118.0409L.3081,304.7624c-.7187,2.156-.1575,4.533,1.4495,6.14,1.1436,1.1436,2.6771,1.7575,4.2434,1.7575.6348,0,1.2748-.1008,1.8966-.3081l178.038-59.346,118.0409,59.0205c.8525.4263,1.7708.6336,2.6815.6336,1.5568,0,3.0923-.6054,4.2444-1.7575,1.8262-1.8261,2.2789-4.616,1.124-6.9259l-59.0205-118.041L312.2854,8.097c.2437-.6527.3769-1.3592.3769-2.0968,0-3.2664-2.6078-5.9231-5.856-5.9984-.0491-.0012-.0982-.0018-.1473-.0018h0Zm.0008,12.0002h.005-.005Z"/>
  </g>
  <line class="cls-2" x1="306.6598" y1="6.0002" x2="6.0002" y2="306.6597"/>
  <line class="cls-2" x1="6.0002" y1="6.0002" x2="135.9732" y2="176.6867"/>
  <line class="cls-2" x1="306.6598" y1="306.6597" x2="135.9732" y2="176.6867"/>
</svg>